<svg width="58" height="30" viewBox="0 0 58 30" fill="none" xmlns="http://www.w3.org/2000/svg">
<rect width="58" height="30" rx="4" fill="#B82323" fill-opacity="0.1"/>
<path d="M22.9654 18.748V17.464H18.7414V15.22H21.8734V9.796H14.0134V15.22H17.1574V17.464H12.9574V18.748H22.9654ZM20.3254 13.972H15.5614V11.044H20.3254V13.972ZM33.1765 14.98V8.992H31.5805V14.98H33.1765ZM30.1165 14.848L30.8845 13.624C29.1925 13.144 28.4005 11.98 28.3045 10.828H30.4765V9.58H24.4645V10.828H26.6725C26.5765 12.076 25.7965 13.276 24.0325 13.792L24.8245 15.04C26.1205 14.644 26.9965 13.84 27.5125 12.784C28.0285 13.744 28.8685 14.476 30.1165 14.848ZM33.1765 15.448H31.6045V16.456H27.4045V15.448H25.8325V19.9H33.1765V15.448ZM27.4045 17.668H31.6045V18.64H27.4045V17.668ZM35.4675 12.34L35.9955 13.564C38.1195 13.384 39.4395 12.616 40.0275 11.56C40.6155 12.604 41.9715 13.384 44.0475 13.564L44.5995 12.34C42.5355 12.148 41.4675 11.452 41.1795 10.696H44.1195V9.436H35.9475V10.696H38.8755C38.5875 11.452 37.5195 12.148 35.4675 12.34ZM40.8195 16.072V15.256H45.0195V13.996H35.0355V15.256H39.2355V16.06C37.3035 16.216 36.1755 16.888 36.1755 18.04C36.1755 19.324 37.6155 20.044 40.0035 20.044C42.3915 20.044 43.8435 19.324 43.8435 18.04C43.8435 16.888 42.7515 16.228 40.8195 16.072ZM42.2355 18.04C42.2355 18.604 41.5035 18.832 40.0035 18.832C38.5035 18.832 37.7715 18.604 37.7715 18.04C37.7715 17.476 38.5035 17.236 40.0035 17.236C41.5035 17.236 42.2355 17.476 42.2355 18.04Z" fill="#DF3D3D"/>
</svg>
