<svg width="69" height="30" viewBox="0 0 69 30" fill="none" xmlns="http://www.w3.org/2000/svg">
<rect width="69" height="30" rx="4" fill="#F4F4F4"/>
<path d="M22.9459 18.748V17.464H18.7219V15.22H21.8539V9.796H13.9939V15.22H17.1379V17.464H12.9379V18.748H22.9459ZM20.3059 13.972H15.5419V11.044H20.3059V13.972ZM33.1569 14.98V8.992H31.5609V14.98H33.1569ZM30.0969 14.848L30.8649 13.624C29.1729 13.144 28.3809 11.98 28.2849 10.828H30.4569V9.58H24.4449V10.828H26.6529C26.5569 12.076 25.7769 13.276 24.0129 13.792L24.8049 15.04C26.1009 14.644 26.9769 13.84 27.4929 12.784C28.0089 13.744 28.8489 14.476 30.0969 14.848ZM33.1569 15.448H31.5849V16.456H27.3849V15.448H25.8129V19.9H33.1569V15.448ZM27.3849 17.668H31.5849V18.64H27.3849V17.668ZM44.496 20.02V8.968H42.996V20.02H44.496ZM42.276 9.16H40.8V11.416H39.528C39.108 10.348 38.424 9.76 37.512 9.76C36.036 9.76 35.112 11.272 35.112 13.768C35.112 16.276 36.036 17.788 37.512 17.788C38.424 17.788 39.12 17.176 39.54 16.108H40.8V19.528H42.276V9.16ZM37.512 16.3C36.888 16.3 36.528 15.46 36.528 13.768C36.528 12.076 36.888 11.248 37.512 11.248C38.124 11.248 38.484 12.076 38.484 13.768C38.484 15.46 38.124 16.3 37.512 16.3ZM40.8 12.688V14.824H39.84C39.876 14.5 39.9 14.14 39.9 13.768C39.9 13.384 39.876 13.024 39.828 12.688H40.8ZM53.7111 8.98V11.644H52.0551V12.928H53.7111V15.556H55.2951V8.98H53.7111ZM51.9471 15.256L52.7151 14.02C51.0351 13.468 50.2551 12.16 50.2191 10.912H52.3671V9.64H46.4271V10.912H48.5991C48.5391 12.292 47.7591 13.696 45.9951 14.308L46.7991 15.556C48.0951 15.124 48.9591 14.224 49.4391 13.108C49.9191 14.08 50.7471 14.86 51.9471 15.256ZM51.5631 15.796C49.2111 15.796 47.7711 16.576 47.7711 17.92C47.7711 19.264 49.2111 20.044 51.5631 20.044C53.9031 20.044 55.3431 19.264 55.3431 17.92C55.3431 16.576 53.9031 15.796 51.5631 15.796ZM51.5631 18.844C50.0871 18.844 49.3551 18.532 49.3551 17.92C49.3551 17.308 50.0871 16.996 51.5631 16.996C53.0271 16.996 53.7591 17.308 53.7591 17.92C53.7591 18.532 53.0271 18.844 51.5631 18.844Z" fill="#F4F4F4"/>
</svg>
