<svg width="47" height="30" viewBox="0 0 47 30" fill="none" xmlns="http://www.w3.org/2000/svg">
<rect width="47" height="30" rx="4" fill="#434343" fill-opacity="0.1"/>
<path d="M23.1289 13.756V12.448H21.7369V8.98H20.1529V17.416H21.7369V13.756H23.1289ZM19.6729 15.52L19.5769 14.404C18.7609 14.536 17.9329 14.584 17.0689 14.632V13.84C18.2689 13.564 19.0249 12.772 19.0249 11.668C19.0249 10.36 17.8729 9.424 16.2649 9.424C14.6689 9.424 13.5169 10.36 13.5169 11.668C13.5169 12.772 14.2849 13.588 15.4849 13.84V14.692C14.5729 14.728 13.7089 14.716 12.9409 14.716L13.1329 15.976C14.9569 15.976 17.4289 15.94 19.6729 15.52ZM14.9929 11.668C14.9929 10.996 15.4969 10.612 16.2649 10.612C17.0329 10.612 17.5609 10.996 17.5609 11.668C17.5609 12.34 17.0329 12.724 16.2649 12.724C15.4969 12.724 14.9929 12.34 14.9929 11.668ZM22.1089 18.58H15.9649V16.696H14.3809V19.84H22.1089V18.58ZM34.024 18.82V17.524H31.6V15.844H33.148V14.572H26.74V13.36H32.896V9.688H25.156V10.948H31.336V12.124H25.168V15.844H26.548V17.524H24.004V18.82H34.024ZM30.04 17.524H28.108V15.844H30.04V17.524Z" fill="#434343"/>
</svg>
