<svg width="58" height="30" viewBox="0 0 58 30" fill="none" xmlns="http://www.w3.org/2000/svg">
<rect width="58" height="30" rx="4" fill="#2370B8" fill-opacity="0.1"/>
<path d="M22.1374 16.972V8.98H20.5414V16.972H22.1374ZM19.0414 15.604L19.8454 14.392C18.0694 13.816 17.2534 12.436 17.2534 11.152V11.02H19.4374V9.772H13.4254V11.02H15.6454V11.152C15.6454 12.532 14.8294 13.984 13.0054 14.56L13.8094 15.796C15.1054 15.376 15.9814 14.548 16.4734 13.444C16.9894 14.452 17.7934 15.22 19.0414 15.604ZM22.4134 18.58H16.3654V16.252H14.7814V19.84H22.4134V18.58ZM31.1005 15.544V12.988H31.9165V15.892H33.4165V8.98H31.9165V11.704H31.1005V9.184H29.6245V15.544H31.1005ZM29.3245 11.332V10.108H27.4045V9.1H25.8445V10.108H23.9365V11.332H29.3245ZM29.0245 13.612C29.0245 12.46 28.0405 11.692 26.6485 11.692C25.2445 11.692 24.2605 12.46 24.2605 13.612C24.2605 14.752 25.2445 15.544 26.6485 15.544C28.0405 15.544 29.0245 14.752 29.0245 13.612ZM25.6645 13.612C25.6645 13.096 26.0605 12.82 26.6485 12.82C27.2365 12.82 27.6205 13.096 27.6205 13.612C27.6205 14.128 27.2365 14.416 26.6485 14.416C26.0605 14.416 25.6645 14.128 25.6645 13.612ZM29.6725 16.012C27.2125 16.012 25.8685 16.732 25.8685 18.028C25.8685 19.324 27.2125 20.032 29.6725 20.032C32.1325 20.032 33.4765 19.324 33.4765 18.028C33.4765 16.732 32.1325 16.012 29.6725 16.012ZM29.6725 18.856C28.1725 18.856 27.4525 18.604 27.4525 18.028C27.4525 17.452 28.1725 17.2 29.6725 17.2C31.1725 17.2 31.8925 17.452 31.8925 18.028C31.8925 18.604 31.1725 18.856 29.6725 18.856ZM35.4675 12.34L35.9955 13.564C38.1195 13.384 39.4395 12.616 40.0275 11.56C40.6155 12.604 41.9715 13.384 44.0475 13.564L44.5995 12.34C42.5355 12.148 41.4675 11.452 41.1795 10.696H44.1195V9.436H35.9475V10.696H38.8755C38.5875 11.452 37.5195 12.148 35.4675 12.34ZM40.8195 15.256H45.0195V13.996H35.0355V15.256H39.2355V16.06C37.3035 16.216 36.1755 16.888 36.1755 18.04C36.1755 19.324 37.6155 20.044 40.0035 20.044C42.3915 20.044 43.8435 19.324 43.8435 18.04C43.8435 16.888 42.7515 16.228 40.8195 16.072V15.256ZM42.2355 18.04C42.2355 18.604 41.5035 18.832 40.0035 18.832C38.5035 18.832 37.7715 18.604 37.7715 18.04C37.7715 17.476 38.5035 17.236 40.0035 17.236C41.5035 17.236 42.2355 17.476 42.2355 18.04Z" fill="#2370B8"/>
</svg>
